<svg width="454" height="480" viewBox="0 0 454 480" fill="none" xmlns="http://www.w3.org/2000/svg">
<path d="M396.859 125.039L377.167 65.0392C376.177 62.022 373.485 60 370.465 60H352.756L335.993 5.193C335.044 2.09475 332.318 0 329.242 0H125.706C122.668 0 119.967 2.04375 118.99 5.0835L101.325 60H83.2928C80.2616 60 77.5632 62.0363 76.5835 65.0685L57.1346 125.069C56.3898 127.361 56.7395 129.888 58.0731 131.858C59.4032 133.829 61.554 135 63.8439 135H78.8854L120.011 473.452C120.465 477.195 123.479 480 127.046 480H325.488C329.045 480 332.051 477.217 332.52 473.489L375.087 135H390.156C392.453 135 394.607 133.829 395.937 131.851C397.267 129.873 397.61 127.332 396.859 125.039ZM130.788 15H324.082L337.843 60H116.312L130.788 15ZM327.75 397.611L125.072 397.388C125.072 397.388 111.194 283.18 102.302 210C199.559 210 351.345 210 351.345 210L327.75 397.611ZM319.274 465H133.288L125.072 397.388L327.75 397.611L319.274 465ZM351.345 210C351.345 210 199.559 210 102.302 210C98.7429 180.711 93.1886 135 93.1886 135H360.777L351.345 210ZM368.875 120H85.1251H73.7744L88.3598 75H106.406H347.594H365.418L380.187 120H368.875Z" fill="white"/>
</svg>
