<svg width="1261" height="1024" viewBox="0 0 1261 1024" fill="none" xmlns="http://www.w3.org/2000/svg">
<path fill-rule="evenodd" clip-rule="evenodd" d="M1164 1.59177e-06L1177.51 53.8133C1184.25 95.8318 1197.73 179.869 1177.53 263.908C1157.33 347.948 1103.46 431.991 1130.41 516.026C1157.35 600.062 1105.86 508.255 1153.01 592.289C1200.17 676.323 1321.51 723.183 1224.01 927.396L1164 1023.91L1007.5 1016.13L1009.21 978.246C1009.21 936.227 1009.2 852.189 1009.19 768.151C1009.19 684.113 1009.18 600.075 1009.17 516.037C1009.16 431.999 1009.16 347.961 1009.15 263.922C1009.14 179.884 1009.14 95.8464 1009.13 53.8274L1009.13 -1.92183e-10L1164 1.59177e-06Z" fill="#774546"/>
<g filter="url(#filter0_d)">
<path d="M1126.47 40.027L1107.5 1.68128e-05L-3.94256e-06 1.56955e-06L-0.000142702 1023.91L1164 1023.91L1148.67 996.135C1137.57 972.665 1115.35 924.888 1107.94 877.15C1100.53 828.575 1107.94 780.876 1130.16 733.215C1152.38 685.554 1189.42 637.932 1196.82 590.233C1204.23 542.533 1182.01 493.919 1148.68 446.113C1115.35 398.307 1070.92 350.472 1074.62 302.763C1078.32 255.054 1130.17 207.471 1144.98 158.954C1159.8 111.274 1137.58 63.4968 1126.47 40.027Z" fill="url(#paint0_linear)"/>
</g>
<defs>
<filter id="filter0_d" x="-4.00012" y="0" width="1206.25" height="1031.91" filterUnits="userSpaceOnUse" color-interpolation-filters="sRGB">
<feFlood flood-opacity="0" result="BackgroundImageFix"/>
<feColorMatrix in="SourceAlpha" type="matrix" values="0 0 0 0 0 0 0 0 0 0 0 0 0 0 0 0 0 0 127 0"/>
<feOffset dy="4"/>
<feGaussianBlur stdDeviation="2"/>
<feColorMatrix type="matrix" values="0 0 0 0 0 0 0 0 0 0 0 0 0 0 0 0 0 0 0.25 0"/>
<feBlend mode="normal" in2="BackgroundImageFix" result="effect1_dropShadow"/>
<feBlend mode="normal" in="SourceGraphic" in2="effect1_dropShadow" result="shape"/>
</filter>
<linearGradient id="paint0_linear" x1="1101.39" y1="82.1801" x2="1010.65" y2="1097.75" gradientUnits="userSpaceOnUse">
<stop stop-color="#C25847"/>
<stop offset="1" stop-color="#782214"/>
</linearGradient>
</defs>
</svg>
