<svg width="1261" height="1024" viewBox="0 0 1261 1024" fill="none" xmlns="http://www.w3.org/2000/svg">
<path fill-rule="evenodd" clip-rule="evenodd" d="M1169 -0.499993L1177.52 46.3581C1184.26 89.0528 1197.73 174.442 1177.53 259.834C1157.34 345.227 1103.46 430.622 1130.41 516.01C1157.36 601.398 1105.86 508.114 1153.02 593.5C1200.17 678.887 1321.52 726.5 1224.02 934L1177.53 1028.36L1009.22 1028.36L1009.22 985.668C1009.21 942.973 1009.2 857.582 1009.2 772.192C1009.19 686.801 1009.18 601.411 1009.18 516.02C1009.17 430.63 1009.16 345.239 1009.15 259.849C1009.15 174.458 1009.14 89.0677 1009.14 46.3725L1009.13 3.67721L1169 -0.499993Z" fill="#774546"/>
<g filter="url(#filter0_d)">
<path d="M1126.58 32.4516L1116.5 -0.5L0.0164819 -6.99998L0.0164523 1027.6L1158.52 1027.6L1148.75 1006.46C1137.66 982.554 1115.47 933.883 1108.08 885.251C1100.68 835.766 1108.08 787.173 1130.27 738.62C1152.45 690.067 1189.43 641.553 1196.83 592.96C1204.23 544.367 1182.04 494.843 1148.76 446.142C1115.48 397.441 1071.11 348.711 1074.8 300.108C1078.5 251.506 1130.27 203.031 1145.07 153.605C1159.86 105.032 1137.67 56.3609 1126.58 32.4516Z" fill="url(#paint0_linear)"/>
<path d="M1126.58 32.4516L1116.5 -0.5L0.0164819 -6.99998L0.0164523 1027.6L1158.52 1027.6L1148.75 1006.46C1137.66 982.554 1115.47 933.883 1108.08 885.251C1100.68 835.766 1108.08 787.173 1130.27 738.62C1152.45 690.067 1189.43 641.553 1196.83 592.96C1204.23 544.367 1182.04 494.843 1148.76 446.142C1115.48 397.441 1071.11 348.711 1074.8 300.108C1078.5 251.506 1130.27 203.031 1145.07 153.605C1159.86 105.032 1137.67 56.3609 1126.58 32.4516Z" stroke="black"/>
</g>
<defs>
<filter id="filter0_d" x="-3.98352" y="-6.99998" width="1206.24" height="1042.6" filterUnits="userSpaceOnUse" color-interpolation-filters="sRGB">
<feFlood flood-opacity="0" result="BackgroundImageFix"/>
<feColorMatrix in="SourceAlpha" type="matrix" values="0 0 0 0 0 0 0 0 0 0 0 0 0 0 0 0 0 0 127 0"/>
<feOffset dy="4"/>
<feGaussianBlur stdDeviation="2"/>
<feColorMatrix type="matrix" values="0 0 0 0 0 0 0 0 0 0 0 0 0 0 0 0 0 0 0.25 0"/>
<feBlend mode="normal" in2="BackgroundImageFix" result="effect1_dropShadow"/>
<feBlend mode="normal" in="SourceGraphic" in2="effect1_dropShadow" result="shape"/>
</filter>
<linearGradient id="paint0_linear" x1="1101.53" y1="75.3942" x2="1007.27" y2="1109.64" gradientUnits="userSpaceOnUse">
<stop stop-color="#C25847"/>
<stop offset="1" stop-color="#782214"/>
</linearGradient>
</defs>
</svg>
